HIERARCHY
ROOT Hips
{
  OFFSET 3.13124 94.3669 -3.18751
  CHANNELS  6 Xposition Yposition Zposition Zrotation Xrotation Yrotation
  JOINT LeftUpLeg
  {
    OFFSET 8.64259 1.95398 -2.38835
    CHANNELS 3 Zrotation Xrotation Yrotation
    JOINT LeftLeg
    {
      OFFSET 43.7702 0 0
      CHANNELS 3 Zrotation Xrotation Yrotation
      JOINT LeftFoot
      {
        OFFSET 40.6238 0 0
        CHANNELS 3 Zrotation Xrotation Yrotation
        JOINT LeftToeBase
        {
          OFFSET 12.7242 0 0
          CHANNELS 3 Zrotation Xrotation Yrotation
          End Site
          {
            OFFSET 0 0 0
          }
        }
      }
    }
  }
  JOINT RightUpLeg
  {
    OFFSET -8.2249 1.95398 -2.59336
    CHANNELS 3 Zrotation Xrotation Yrotation
    JOINT RightLeg
    {
      OFFSET 43.5653 0 0
      CHANNELS 3 Zrotation Xrotation Yrotation
      JOINT RightFoot
      {
        OFFSET 40.6238 0 0
        CHANNELS 3 Zrotation Xrotation Yrotation
        JOINT RightToeBase
        {
          OFFSET 12.7242 0 0
          CHANNELS 3 Zrotation Xrotation Yrotation
          End Site
          {
            OFFSET 0 0 0
          }
        }
      }
    }
  }
  JOINT Spine
  {
    OFFSET 0.165834 0.87714 6.61349
    CHANNELS 3 Zrotation Xrotation Yrotation
    JOINT Spine1
    {
      OFFSET 7.38962 1.71661e-005 0
      CHANNELS 3 Zrotation Xrotation Yrotation
      JOINT Spine2
      {
        OFFSET 11.9445 1.14441e-005 0
        CHANNELS 3 Zrotation Xrotation Yrotation
        JOINT Spine3
        {
          OFFSET 14.7254 4.19617e-005 0
          CHANNELS 3 Zrotation Xrotation Yrotation
          JOINT Spine4
          {
            OFFSET 10.9679 0 0
            CHANNELS 3 Zrotation Xrotation Yrotation
            JOINT RightShoulder
            {
              OFFSET 2.46616 -1.6653 3.69651
              CHANNELS 3 Zrotation Xrotation Yrotation
              JOINT RightArm
              {
                OFFSET 13.0012 0 0
                CHANNELS 3 Zrotation Xrotation Yrotation
                JOINT RightForeArm
                {
                  OFFSET 28.7848 1.52588e-005 0
                  CHANNELS 3 Zrotation Xrotation Yrotation
                  JOINT RightHand
                  {
                    OFFSET 26.5688 1.52588e-005 0
                    CHANNELS 3 Zrotation Xrotation Yrotation
                    End Site
                    {
                      OFFSET 0 0 0
                    }
                  }
                }
              }
            }
            JOINT LeftShoulder
            {
              OFFSET 2.38034 -1.29275 -3.75231
              CHANNELS 3 Zrotation Xrotation Yrotation
              JOINT LeftArm
              {
                OFFSET 16.3182 6.10352e-005 0
                CHANNELS 3 Zrotation Xrotation Yrotation
                JOINT LeftForeArm
                {
                  OFFSET 27.0901 0 0
                  CHANNELS 3 Zrotation Xrotation Yrotation
                  JOINT LeftHand
                  {
                    OFFSET 24.5451 1.52588e-005 0
                    CHANNELS 3 Zrotation Xrotation Yrotation
                    End Site
                    {
                      OFFSET 0 0 0
                    }
                  }
                }
              }
            }
            JOINT Neck
            {
              OFFSET 5.0226 -0.0266342 0
              CHANNELS 3 Zrotation Xrotation Yrotation
              JOINT Head
              {
                OFFSET 6.69363 2.86102e-005 0
                CHANNELS 3 Zrotation Xrotation Yrotation
                End Site
                {
                  OFFSET 0 0 0
                }
              }
            }
          }
        }
      }
    }
  }
}
MOTION
Frames:	15
Frame Time:	0.0333333
-47.42 101.196 31.184 -28.665 -53.4924 -95.856 -166.036 -22.0688 118.739 -25.539 -1.26205 0.144456 -3.4853 -6.92748 -17.4581 28.7808 4.36703e-006 2.60376e-006 175.241 52.3706 49.6489 -4.3898 18.6292 1.13526 63.554 -6.68476 -3.77417 28.7808 1.58089e-005 1.96166e-005 -1.13499 5.15486 -86.4744 16.502 0.953534 6.67445 4.81451 1.24571 6.62654 -17.5851 -1.09186 6.65352 2.4276 -1.09186 6.65348 99.2258 -20.7155 -89.189 13.9603 53.6355 -76.7008 -27.7901 -20.9297 -54.5782 -1.29132 -0.128651 12.0666 -84.3841 -28.6071 83.8583 19.8199 -35.1036 9.83647 -7.31601 -16.1433 -33.7636 8.76592 0.275746 -0.615185 80.0475 2.72502 27.538 -23.1377 -24.804 1.79427 
-47.1685 101.211 31.2569 -28.3645 -53.2873 -95.9481 -166 -22.3571 118.741 -25.6603 -0.916922 0.163825 -3.52787 -6.91296 -17.4495 28.7808 4.36703e-006 2.60376e-006 175.431 52.8359 49.1951 -4.37629 18.2921 1.11233 63.7711 -5.07082 -2.84074 28.7808 1.58089e-005 1.96166e-005 -1.10873 5.05301 -86.476 16.704 1.03165 6.66361 5.0167 1.32327 6.61213 -17.3829 -1.01401 6.66622 2.62971 -1.01402 6.66618 98.687 -20.3304 -90.544 14.2259 53.7189 -74.8074 -29.528 -20.6774 -57.0546 -0.852066 -0.0633967 12.4534 -84.3465 -26.8502 83.5695 18.4364 -34.1792 11.1416 -7.52864 -16.1219 -34.3852 8.72076 0.370975 0.378725 76.7849 0.793989 26.7365 -19.282 -24.3998 2.75543 
-47.0177 101.251 31.2801 -28.2944 -53.2742 -96.027 -165.868 -22.2126 119.06 -25.8381 -0.807449 0.173798 -3.25434 -6.68383 -16.8993 28.7808 4.36703e-006 2.60376e-006 175.59 53.136 49.0325 -4.36509 18.016 1.09253 63.1572 -6.09494 -3.45336 28.7808 1.58089e-005 1.96166e-005 -1.08027 4.96886 -86.5002 16.872 1.05231 6.64934 5.18483 1.3433 6.597 -17.2153 -0.990042 6.65835 2.79736 -0.99006 6.65838 98.1736 -20.1573 -91.8156 14.4062 53.6437 -73.1743 -30.787 -20.3552 -58.9243 -0.999798 -0.0871496 12.7536 -84.2728 -25.3375 83.3939 17.2628 -33.3507 11.9722 -7.72127 -16.3623 -34.5172 8.83907 0.439196 1.02281 73.8388 -0.848835 26.0692 -16.5427 -24.018 3.06921 
-46.9334 101.298 31.2826 -28.4026 -53.5749 -96.1619 -165.647 -21.7735 119.546 -25.7501 -0.395981 0.197691 -3.28866 -6.61116 -16.7785 28.7808 4.36703e-006 2.60376e-006 175.594 53.1955 48.8811 -4.36854 18.1065 1.09825 62.6209 -7.45934 -4.27657 28.7808 1.58089e-005 1.96166e-005 -1.07611 4.92173 -86.5278 16.9674 0.993861 6.64891 5.28005 1.28487 6.59909 -17.1203 -1.04571 6.63877 2.89237 -1.04572 6.63872 97.7831 -20.1189 -92.769 14.7138 53.7368 -71.9555 -32.6307 -20.3021 -60.9925 -0.49234 -0.00701314 13.2807 -84.1972 -24.3413 83.3306 16.497 -32.8276 12.6112 -7.86867 -16.4871 -34.7112 9.14483 0.506138 1.54129 71.4548 -2.08049 25.4412 -14.1229 -23.6548 3.56461 
-46.8806 101.325 31.3271 -28.7223 -53.5214 -96.3899 -165.719 -21.6142 119.445 -25.7378 -0.714495 0.181343 -3.17332 -6.56219 -16.6413 28.7808 4.36703e-006 2.60376e-006 175.543 53.0924 48.955 -4.35969 17.8848 1.08254 62.3398 -7.93229 -4.57145 28.7808 1.58089e-005 1.96166e-005 -1.05188 4.89804 -86.5672 17.0151 1.00453 6.57226 5.32827 1.29211 6.52204 -17.0753 -1.01262 6.57106 2.93732 -1.01263 6.57106 97.5074 -19.7235 -93.5203 14.8768 53.6926 -70.7661 -33.8224 -20.0783 -62.4782 -0.855162 -0.0669831 13.9034 -84.2588 -23.9792 83.1185 16.1437 -32.4776 13.309 -8.20547 -16.8725 -34.9822 9.5478 0.565356 1.90809 69.5128 -2.42407 25.7902 -12.6601 -23.4825 3.0343 
-46.861 101.375 31.3899 -29.3955 -53.3187 -96.844 -165.925 -21.7403 118.952 -25.6097 -0.961563 0.166275 -3.29903 -6.68407 -16.9258 28.7808 4.36703e-006 2.60376e-006 175.37 52.7569 49.1221 -4.35043 17.645 1.06619 62.1821 -7.2869 -4.20038 28.7808 1.58089e-005 1.96166e-005 -1.01796 4.90877 -86.612 16.9959 1.04114 6.46348 5.3095 1.32399 6.41176 -17.0976 -0.945174 6.47818 2.91508 -0.94519 6.47819 97.4388 -19.2704 -93.7937 15.1225 53.2878 -69.9972 -34.8061 -19.9538 -63.583 -1.70653 -0.212095 14.1842 -84.5068 -24.4624 82.7035 16.2342 -32.1438 13.5671 -7.99474 -17.0877 -34.1003 10.1462 0.571961 1.66245 68.6938 -1.96441 26.7925 -12.7314 -23.4932 1.86121 
-46.8444 101.336 31.4439 -30.3447 -53.2071 -97.3999 -166.203 -21.8037 118.467 -25.4399 -1.39967 0.13531 -3.62 -6.72498 -17.1152 28.7808 4.36703e-006 2.60376e-006 175.11 52.1904 49.4486 -4.35949 17.8786 1.08213 62.6109 -7.49532 -4.29831 28.7808 1.58089e-005 1.96166e-005 -1.04256 4.95882 -86.6344 16.8977 1.05776 6.33189 5.21203 1.33514 6.27953 -17.2004 -0.890499 6.35751 2.81227 -0.89051 6.35751 97.1718 -19.323 -94.4078 15.2815 53.3379 -69.5304 -36.113 -20.0927 -64.6367 -1.95324 -0.254666 14.2144 -84.8144 -25.5264 82.3207 16.6261 -31.9681 13.478 -7.68109 -17.2704 -33.0062 10.4543 0.558096 1.40303 68.342 -1.31193 28.0096 -12.9679 -23.6955 0.709934 
-46.8977 101.459 31.4984 -31.4836 -53.136 -97.8612 -166.525 -21.5314 117.975 -25.5185 -1.766 0.113931 -3.45528 -6.75341 -17.1082 28.7808 4.36703e-006 2.60376e-006 174.773 51.417 49.9558 -4.36071 17.9124 1.08408 61.8387 -7.68382 -4.46589 28.7808 1.58089e-005 1.96166e-005 -1.03362 5.03016 -86.6745 16.7571 1.03428 6.23041 5.0719 1.30696 6.17916 -17.3445 -0.882152 6.25366 2.66815 -0.882154 6.2537 97.0392 -19.959 -94.614 15.9533 52.9132 -69.6949 -38.0219 -20.2276 -66.1636 -2.23169 -0.31279 14.9768 -85.0374 -26.6339 82.1148 17.0234 -31.9443 12.8136 -7.90523 -18.437 -31.9327 11.0153 0.584247 1.38268 69.0887 -0.644124 28.6609 -14.5799 -23.8149 -0.300427 
-47.0246 101.446 31.5268 -32.9431 -52.9939 -98.3709 -166.689 -21.4076 117.682 -25.3256 -1.68456 0.11035 -3.59402 -6.6358 -16.9278 28.7808 4.36703e-006 2.60376e-006 174.338 50.2916 50.9134 -4.36852 18.1141 1.09747 61.7438 -9.27182 -5.41373 28.7808 1.58089e-005 1.96166e-005 -1.04777 5.12754 -86.708 16.5652 1.01416 6.07896 4.88069 1.28023 6.02875 -17.5414 -0.856025 6.10318 2.47124 -0.856038 6.10318 96.8646 -20.8118 -94.8036 16.6367 52.5891 -70.0723 -39.5543 -20.1475 -67.5173 -2.28121 -0.323296 15.0872 -85.0892 -28.3325 82.3972 17.4388 -32.0058 11.3226 -6.96932 -18.0653 -30.0062 11.3578 0.555348 0.990779 70.1272 0.300831 29.6904 -16.9124 -24.1006 -1.56286 
-47.2385 101.36 31.5479 -34.5026 -52.7108 -98.5504 -166.49 -21.2501 117.837 -24.8239 0.184045 0.195142 -3.27122 -6.92258 -17.3451 28.7808 4.36703e-006 2.60376e-006 173.893 48.8744 52.3671 -4.37291 18.2273 1.10486 61.6042 -11.8235 -6.95914 28.7808 1.58089e-005 1.96166e-005 -1.04665 5.23098 -86.7518 16.3615 0.989874 5.87582 4.67787 1.24707 5.82683 -17.7515 -0.819385 5.9021 2.26114 -0.819387 5.90206 96.7513 -21.773 -94.8525 17.0958 51.8774 -70.6276 -40.8935 -20.5482 -68.1597 -3.57967 -0.564492 15.4717 -85.0661 -30.0948 82.8285 18.0714 -32.1797 9.68024 -6.23195 -18.0417 -28.0512 11.5285 0.474036 0.260024 71.5355 1.15197 30.0447 -19.1439 -24.1185 -2.28543 
-47.4395 101.29 31.5053 -35.9812 -52.5636 -98.6996 -166.833 -20.5582 117.511 -24.859 -0.395313 0.157833 -3.24788 -6.71039 -16.9215 28.7808 4.36703e-006 2.60376e-006 173.494 47.4622 53.6194 -4.38689 18.5741 1.12875 61.4753 -13.6651 -8.08698 28.7808 1.58089e-005 1.96166e-005 -1.06963 5.32274 -86.789 16.1813 0.928032 5.71641 4.49831 1.17828 5.67025 -17.9369 -0.829834 5.73151 2.07572 -0.829836 5.73148 96.5859 -22.6726 -95.0387 17.476 51.248 -71.0025 -41.3202 -20.5171 -68.5206 -4.37272 -0.714486 15.6469 -85.125 -31.9226 83.096 18.8977 -32.3793 8.43625 -5.56076 -17.9292 -26.3278 12.0817 0.338835 -0.984574 72.8501 2.00834 30.5446 -21.7372 -24.1069 -3.48373 
-47.6435 101.29 31.4839 -37.7996 -52.3216 -99.1944 -167.104 -20.1994 116.944 -24.5503 -0.325087 0.152082 -3.5105 -7.01031 -17.6039 28.7808 4.36703e-006 2.60376e-006 173.055 45.882 54.7015 -4.38922 18.6272 1.1329 61.2988 -14.3462 -8.52565 28.7808 1.58089e-005 1.96166e-005 -1.08622 5.41059 -86.7783 16.0065 0.873965 5.63369 4.32382 1.12079 5.59004 -18.1143 -0.85772 5.63594 1.89832 -0.857712 5.63592 96.1432 -23.6652 -95.7943 17.7377 50.6091 -70.9324 -42.8369 -20.8313 -69.35 -5.11386 -0.860438 15.894 -84.8806 -32.8176 83.7365 18.8593 -32.3838 7.54283 -4.95241 -17.2292 -25.4191 13.0164 0.234585 -1.95618 73.1495 1.77447 30.1467 -22.3958 -24.0452 -3.58691 
-47.84 101.24 31.4909 -39.5465 -51.6972 -99.5632 -167.577 -20.1071 116 -24.3376 -0.84932 0.11209 -3.42192 -7.15713 -17.8517 28.7808 4.36703e-006 2.60376e-006 172.767 44.3778 55.9557 -4.39593 18.7819 1.14473 61.2769 -14.7198 -8.75655 28.7808 1.58089e-005 1.96166e-005 -1.1 5.45507 -86.7089 15.9162 0.875553 5.6108 4.23365 1.12123 5.56704 -18.2053 -0.848371 5.61411 1.80731 -0.848386 5.61409 95.5299 -24.9512 -96.8397 17.838 49.677 -70.5958 -43.2687 -20.918 -69.583 -6.55615 -1.13293 16.0284 -84.24 -32.8652 84.9398 18.243 -32.4012 6.68415 -4.25965 -15.7203 -25.1996 13.8984 0.323639 -1.47173 73.0094 0.450594 28.2283 -22.099 -23.6948 -2.11436 
-48.0177 101.165 31.4737 -41.7695 -51.268 -100.217 -168.035 -19.7286 115.316 -24.7406 -0.966252 0.100842 -3.37919 -6.9646 -17.4484 28.7808 4.36703e-006 2.60376e-006 172.407 42.5101 57.1679 -4.40853 19.0741 1.16632 61.5154 -15.4709 -9.17818 28.7808 1.58089e-005 1.96166e-005 -1.12946 5.50597 -86.6357 15.8134 0.822609 5.62018 4.13076 1.06881 5.57891 -18.3081 -0.901904 5.60827 1.70449 -0.90191 5.60824 94.709 -26.4617 -98.2235 17.8287 48.9413 -70.0796 -43.0474 -20.7817 -69.5515 -7.17934 -1.18443 14.9167 -83.4396 -32.516 86.3848 17.2859 -32.3685 6.0984 -4.086 -14.9498 -25.6888 14.5846 0.361195 -1.3525 72.2737 -1.41549 25.8424 -21.2607 -23.3009 -0.198603 
-48.2436 101.125 31.4569 -43.7603 -51.0674 -100.692 -168.416 -19.1187 114.717 -25.0418 -0.477522 0.122886 -2.75176 -7.01757 -17.3066 28.7808 4.36703e-006 2.60376e-006 172.083 40.6998 58.2369 -4.43193 19.6062 1.20556 61.3925 -16.4021 -9.76583 28.7808 1.58089e-005 1.96166e-005 -1.17384 5.52684 -86.5531 15.7704 0.706248 5.68544 4.08736 0.955377 5.64903 -18.3498 -1.03226 5.6356 1.66281 -1.03228 5.63558 93.691 -28.4403 -99.8114 18.0919 48.1009 -69.9793 -44.1746 -20.9448 -70.2098 -7.27372 -1.20301 14.9101 -82.4142 -31.8028 88.2262 15.9151 -32.4804 5.48898 -3.81812 -13.4268 -27.1024 15.3837 0.719421 0.812179 71.1654 -3.69624 22.6068 -19.8105 -22.5978 2.42925 
